<svg width="69.363mm" height="75.15mm" version="1.1" viewBox="0 0 69.363 75.15" xmlns="http://www.w3.org/2000/svg">
 <defs>
  <style>.cls-1 {
        fill: #48b6a3;
      }

      .cls-1, .cls-2, .cls-3, .cls-4, .cls-5 {
        stroke-width: 0px;
      }

      .cls-2 {
        fill: #1e2c19;
      }

      .cls-3 {
        fill: #00a796;
      }

      .cls-4 {
        fill: #fff;
      }

      .cls-5 {
        fill: #f29300;
      }</style>
 </defs>
 <g transform="translate(242.34 -40.554)">
  <g transform="matrix(.26458 0 0 .26458 -246.57 40.554)">
   <circle class="cls-5" cx="147.06" cy="152.95" r="129.51"/>
   <path class="cls-2" d="m147.06 284.03c-72.28 0-131.08-58.8-131.08-131.08s58.8-131.08 131.08-131.08 131.08 58.8 131.08 131.08-58.8 131.08-131.08 131.08zm0-259.01c-70.54 0-127.94 57.39-127.94 127.94s57.39 127.94 127.94 127.94 127.94-57.39 127.94-127.94-57.4-127.94-127.94-127.94z"/>
   <circle class="cls-1" cx="147.06" cy="152.95" r="119.74"/>
   <path class="cls-2" d="m147.06 273.9c-66.69 0-120.95-54.26-120.95-120.95s54.26-120.95 120.95-120.95 120.95 54.26 120.95 120.95-54.26 120.95-120.95 120.95zm0-239.47c-65.35 0-118.52 53.17-118.52 118.52s53.17 118.52 118.52 118.52 118.52-53.17 118.52-118.52-53.17-118.52-118.52-118.52z"/>
   <circle class="cls-4" cx="145.8" cy="131.15" r="41.63"/>
   <path class="cls-2" d="m145.8 173.99c-23.63 0-42.85-19.22-42.85-42.85s19.22-42.85 42.85-42.85 42.85 19.22 42.85 42.85-19.22 42.85-42.85 42.85zm0-83.26c-22.29 0-40.42 18.13-40.42 40.42s18.13 40.42 40.42 40.42 40.42-18.13 40.42-40.42-18.13-40.42-40.42-40.42z"/>
   <path class="cls-5" d="m266.82 152.95c-40.01 1.8-100.68 59.14-101.5 59.92-6.16.25-12.29.4-18.27.4h-.06c-5.94 0-12.03-.14-18.14-.39 0 0-61.23-58.12-101.51-59.92 0-19.66 4.74-38.23 13.14-54.59l17.27 17.63 11.94-13.37 37.72 42.66 16.78-22.48 22.81 26.34 23-26.34 16.78 22.48 37.72-42.66 11.94 13.37 17.23-17.59c8.39 16.36 13.12 34.9 13.12 54.55z"/>
   <path class="cls-2" d="m147.05 214.49c-5.68 0-11.8-.13-18.24-.39-.29-.01-.57-.13-.79-.33-.61-.58-61.36-57.82-100.73-59.59-.65-.03-1.16-.56-1.16-1.21 0-19.43 4.47-37.99 13.27-55.15.18-.35.51-.59.9-.65s.78.07 1.05.35l16.36 16.7 11.08-12.4c.23-.26.56-.41.91-.41.39 0 .68.15.91.41l36.73 41.54 15.89-21.29c.22-.3.56-.47.93-.49s.72.14.96.42l21.9 25.29 22.08-25.29c.24-.28.6-.44.96-.42.37.01.71.19.93.49l15.89 21.29 36.73-41.54c.23-.26.58-.41.91-.41.35 0 .68.15.91.41l11.08 12.4 16.32-16.66c.27-.28.66-.41 1.05-.35s.72.3.9.65c8.79 17.16 13.25 35.7 13.25 55.11 0 .65-.51 1.19-1.16 1.21-39.42 1.77-100.11 59.01-100.72 59.58-.21.2-.49.32-.79.33-6.42.27-12.59.4-18.32.4zm-17.68-2.81c6.24.25 12.17.37 17.63.37s11.59-.13 17.82-.38c4.92-4.59 62.03-57.13 100.78-59.87-.17-18.03-4.28-35.29-12.22-51.34l-16.04 16.38c-.24.24-.56.36-.9.37-.34 0-.65-.15-.88-.41l-11.03-12.35-36.82 41.64c-.24.27-.6.42-.96.41-.37-.02-.71-.19-.92-.49l-15.88-21.28-22.01 25.21c-.23.26-.56.42-.92.42-.36-.02-.69-.15-.92-.42l-21.82-25.2-15.88 21.27c-.22.29-.56.47-.92.49s-.72-.14-.96-.41l-36.82-41.64-11.03 12.35c-.22.25-.54.4-.88.41-.34 0-.66-.12-.9-.37l-16.08-16.42c-7.96 16.05-12.07 33.32-12.24 51.38 39.13 2.73 95.42 54.82 100.79 59.88zm137.45-58.73h.01z"/>
   <path class="cls-1" d="m128.83 212.88c-44.54-1.84-90.38-9.45-90.38-9.45-7.14-15.34-11.13-32.44-11.13-50.48 40.28 1.81 101.51 59.92 101.51 59.92z"/>
   <path class="cls-2" d="m128.83 214.09h-.05c-44.11-1.82-90.07-9.39-90.52-9.46-.4-.07-.73-.32-.9-.69-7.46-16.02-11.25-33.18-11.25-50.99 0-.33.14-.65.38-.88s.55-.35.9-.34c40.27 1.81 99.78 57.87 102.29 60.26.37.35.48.89.28 1.36-.19.45-.63.74-1.12.74zm-89.54-11.76c5.53.89 46.18 7.27 86.27 9.18-11.61-10.54-62.16-54.69-97.01-57.27.18 16.78 3.79 32.95 10.74 48.09z"/>
   <path class="cls-1" d="m165.28 212.88c44.54-1.84 90.38-9.45 90.38-9.45 7.14-15.34 11.13-32.44 11.13-50.48-40.28 1.81-101.51 59.92-101.51 59.92z"/>
   <path class="cls-2" d="m165.28 214.09c-.49 0-.93-.29-1.12-.74-.2-.47-.08-1.01.28-1.36 2.51-2.39 62.02-58.45 102.29-60.26.33-.01.65.11.9.34.24.23.38.55.38.88 0 17.81-3.78 34.97-11.25 50.99-.17.36-.51.62-.9.69-.46.08-46.42 7.64-90.52 9.46h-.05zm100.29-59.85c-34.85 2.58-85.4 46.73-97.01 57.27 40.09-1.91 80.74-8.29 86.27-9.18 6.95-15.14 10.57-31.31 10.74-48.09z"/>
   <path class="cls-1" d="m255.67 203.47c-19.05 40.88-60.51 69.21-108.59 69.21s-89.54-28.34-108.59-69.22c0 0 59.23 9.8 108.47 9.8h.06c48.35 0 106.51-9.45 108.65-9.8z"/>
   <path class="cls-2" d="m147.09 273.9c-46.84 0-89.9-27.45-109.69-69.92-.19-.41-.14-.89.13-1.25s.72-.54 1.17-.46c.59.1 59.7 9.79 108.27 9.79h.05c48.22 0 106.02-9.38 108.45-9.78.45-.07.89.11 1.17.47.27.36.32.84.13 1.25-19.79 42.47-62.85 69.91-109.69 69.91zm-106.49-68.87c19.82 40.44 61.36 66.44 106.49 66.44s86.68-26 106.49-66.43c-11.53 1.81-62.92 9.45-106.5 9.45h-.05c-43.38 0-95.03-7.67-106.43-9.45z"/>
   <path class="cls-1" d="m238.13 230.68c-21.96 25.71-54.61 42.01-91.08 42.01s-69.11-16.29-91.07-42c24.03-5.84 88.77-5.33 91.07-5.3h.06c2.28-.02 66.94-.54 91.02 5.29z"/>
   <path class="cls-2" d="m147.05 273.9c-35.43 0-68.96-15.46-91.99-42.42-.27-.32-.36-.76-.23-1.16s.46-.71.87-.81c24.15-5.87 88.64-5.36 91.37-5.34 2.77-.02 67.15-.53 91.35 5.33.41.1.74.4.87.81.13.4.04.84-.23 1.16-23.04 26.97-56.57 42.44-92 42.44zm-88.82-42.47c22.52 25.47 54.77 40.04 88.82 40.04s66.3-14.57 88.82-40.05c-25.27-5.32-86.11-4.84-88.75-4.81-2.73-.03-63.67-.5-88.89 4.83z"/>
   <path class="cls-4" d="m170.62 46.37c0 21.09-23.57 31.27-23.57 31.27s-23.57-10.17-23.57-31.27 23.58-45.13 23.58-45.13 23.57 24.03 23.57 45.12z"/>
   <path class="cls-2" d="m147.06 78.88c-.17 0-.34-.03-.49-.1-.99-.43-24.32-10.75-24.32-32.41s22.94-45 23.92-46c.47-.48 1.31-.48 1.77 0 .98 1 23.92 24.64 23.92 45.99s-23.32 31.98-24.32 32.41c-.16.07-.32.1-.49.1zm0-75.83c-4.25 4.61-22.32 25.28-22.32 43.31s18.99 28.3 22.32 29.9c3.33-1.6 22.32-11.54 22.32-29.9s-18.07-38.69-22.32-43.31z"/>
   <path class="cls-2" d="m132.26 213.41c-.67 0-1.22-.54-1.22-1.22v-12.28c0-20.83 14.44-39.61 15.06-40.4.41-.53 1.18-.62 1.71-.21s.63 1.18.21 1.71c-.15.19-14.54 18.93-14.54 38.9v12.28c0 .67-.54 1.22-1.22 1.22z"/>
   <path class="cls-5" d="m161.86 212.2v-12.28c0-20.65-14.8-39.65-14.8-39.65h.06s-14.8 19-14.8 39.65v12.28z"/>
   <path class="cls-2" d="m161.86 213.41c-.67 0-1.22-.54-1.22-1.22v-12.28c0-16.89-10.28-32.88-13.55-37.54-3.28 4.67-13.55 20.66-13.55 37.54v12.28c0 .67-.54 1.22-1.22 1.22s-1.22-.54-1.22-1.22v-12.28c0-19.63 12.83-37.45 14.82-40.09.01-.03.03-.06.04-.1.2-.42.63-.68 1.09-.68s.92.26 1.12.68c1.72 2.26 14.89 20.29 14.89 40.18v12.28c0 .67-.54 1.22-1.22 1.22z"/>
   <path class="cls-3" d="m155.08 25.03c0 11.12-8.02 16.48-8.02 16.48s-8.02-5.36-8.02-16.48 8.02-23.79 8.02-23.79 8.02 12.67 8.02 23.79z"/>
   <path class="cls-2" d="m147.06 42.75c-.24 0-.48-.07-.69-.21-.35-.23-8.58-5.86-8.58-17.51s7.88-23.92 8.22-24.45c.23-.36.62-.58 1.05-.58s.82.22 1.05.58c.34.53 8.22 13.1 8.22 24.45s-8.23 17.28-8.58 17.51c-.21.14-.45.21-.69.21zm0-39.05c-2.14 3.83-6.78 13.1-6.78 21.32s4.92 13.38 6.78 14.92c1.86-1.53 6.78-6.4 6.78-14.92s-4.65-17.5-6.78-21.32z"/>
   <path class="cls-2" d="m147.06 76.61c-.69 0-1.24-.56-1.24-1.24v-33.86c0-.69.56-1.24 1.24-1.24s1.24.56 1.24 1.24v33.86c0 .69-.56 1.24-1.24 1.24z"/>
   <path class="cls-2" d="m157.62 219.4c-1.58-8-4.78-10.4-10.56-10.4s-9.12 3.2-10.56 10.4l-5.97 29.91c-.24 1.18.67 2.29 1.88 2.29h29.32c1.21 0 2.11-1.1 1.88-2.28-1.25-6.21-4.69-23.41-5.97-29.92z"/>
   <rect class="cls-2" x="138.48" y="248.86" width="6.23" height="14.97" rx=".72" ry=".72"/>
   <rect class="cls-2" x="149.41" y="248.86" width="6.23" height="14.97" rx=".72" ry=".72"/>
   <path class="cls-2" d="m147.06 61.77c-.69 0-1.24-.56-1.24-1.24 0-4.29-3.2-7.6-6.9-11.44-6.21-6.43-13.93-14.42-7.03-30.27.27-.63 1.01-.92 1.63-.64.63.27.92 1.01.64 1.63-6.24 14.32.26 21.04 6.54 27.55 3.91 4.05 7.6 7.87 7.6 13.16 0 .69-.56 1.24-1.24 1.24z"/>
   <path class="cls-2" d="m147.06 73.5c-.45 0-.88-.24-1.1-.67-2.96-5.67-7.55-9.65-11.99-13.51-5.48-4.76-10.66-9.26-11.51-16.17-.08-.68.4-1.3 1.08-1.39.68-.08 1.3.4 1.39 1.08.74 5.97 5.34 9.97 10.68 14.6 4.4 3.82 9.38 8.15 12.56 14.23.32.61.08 1.36-.52 1.68-.18.1-.38.14-.57.14z"/>
   <path class="cls-2" d="m147.06 61.77c-.69 0-1.24-.56-1.24-1.24 0-5.29 3.69-9.12 7.6-13.16 6.28-6.5 12.77-13.23 6.54-27.55-.27-.63.01-1.36.64-1.63s1.36.01 1.63.64c6.9 15.84-.82 23.84-7.03 30.27-3.7 3.83-6.9 7.15-6.9 11.44 0 .69-.56 1.24-1.24 1.24z"/>
   <path class="cls-2" d="m147.06 73.5c-.19 0-.39-.05-.57-.14-.61-.32-.84-1.07-.52-1.68 3.18-6.08 8.17-10.41 12.56-14.23 5.33-4.63 9.94-8.64 10.68-14.6.08-.68.71-1.16 1.39-1.08s1.16.7 1.08 1.39c-.85 6.91-6.03 11.41-11.51 16.17-4.44 3.86-9.03 7.84-11.99 13.51-.22.42-.65.67-1.1.67z"/>
   <path class="cls-2" d="m147.06 213.41c-.67 0-1.22-.54-1.22-1.22v-23.87c0-.67.54-1.22 1.22-1.22s1.22.54 1.22 1.22v23.87c0 .67-.54 1.22-1.22 1.22z"/>
   <path class="cls-2" d="m147.06 203.59c-.31 0-.62-.12-.86-.36l-12.94-12.94c-.47-.48-.47-1.24 0-1.72.47-.47 1.25-.47 1.72 0l12.94 12.94c.47.48.47 1.24 0 1.72-.24.24-.55.36-.86.36z"/>
   <path class="cls-2" d="m147 189.54c-.31 0-.62-.12-.86-.36l-9.12-9.12c-.47-.48-.47-1.24 0-1.72.47-.47 1.25-.47 1.72 0l9.12 9.12c.47.48.47 1.24 0 1.72-.24.24-.55.36-.86.36z"/>
   <path class="cls-2" d="m147.06 203.59c-.31 0-.62-.12-.86-.36-.47-.48-.47-1.24 0-1.72l12.94-12.94c.47-.47 1.25-.47 1.72 0 .47.48.47 1.24 0 1.72l-12.94 12.94c-.24.24-.55.36-.86.36z"/>
   <path class="cls-2" d="m147.12 189.54c-.31 0-.62-.12-.86-.36-.47-.48-.47-1.24 0-1.72l9.12-9.12c.47-.47 1.25-.47 1.72 0 .47.48.47 1.24 0 1.72l-9.12 9.12c-.24.24-.55.36-.86.36z"/>
   <path class="cls-2" d="m128.83 213.41c-.3 0-.6-.11-.83-.33-.61-.57-61.36-57.15-100.73-58.92-.67-.03-1.19-.6-1.16-1.27s.6-1.17 1.27-1.16c40.27 1.81 99.77 57.21 102.29 59.57.49.46.51 1.23.05 1.72-.24.25-.56.38-.89.38z"/>
   <path class="cls-2" d="m91.12 211.18c-.32 0-.64-.13-.88-.38-.31-.33-31.61-32.8-60.71-33.55-.67-.02-1.2-.58-1.18-1.25s.57-1.23 1.25-1.18c30.11.78 61.1 32.94 62.4 34.31.46.49.44 1.26-.04 1.72-.24.22-.54.34-.84.34z"/>
   <path class="cls-2" d="m147.12 203.59c-.31 0-.62-.12-.86-.36l-12.94-12.94c-.47-.48-.47-1.24 0-1.72.47-.47 1.25-.47 1.72 0l12.94 12.94c.47.48.47 1.24 0 1.72-.24.24-.55.36-.86.36z"/>
   <path class="cls-2" d="m147.06 189.54c-.31 0-.62-.12-.86-.36l-9.12-9.12c-.47-.48-.47-1.24 0-1.72.47-.47 1.25-.47 1.72 0l9.12 9.12c.47.48.47 1.24 0 1.72-.24.24-.55.36-.86.36z"/>
   <path class="cls-2" d="m203.29 211.36c-.35 0-.69-.15-.93-.43-.43-.51-.37-1.28.15-1.71 1.61-1.36 39.7-33.27 61.99-34.27.67 0 1.24.49 1.27 1.16s-.49 1.24-1.16 1.27c-21.46.96-60.14 33.37-60.53 33.7-.23.19-.51.29-.78.29z"/>
   <path class="cls-2" d="m161.54 193.77c-.3 0-.6-.11-.83-.33-.49-.46-.52-1.23-.06-1.72l24.55-26.25c.45-.48 1.2-.52 1.7-.08l17.19 15.32c.5.45.55 1.22.1 1.72s-1.21.55-1.72.1l-16.3-14.53-23.74 25.39c-.24.26-.56.39-.89.39z"/>
   <path class="cls-2" d="m120.28 160.81c-.33 0-.67-.14-.91-.4l-12.85-14.3c-.45-.5-.41-1.27.09-1.72s1.27-.41 1.72.09l12.85 14.3c.45.5.41 1.27-.09 1.72-.23.21-.52.31-.81.31z"/>
   <path class="cls-2" d="m173.96 160.81c-.29 0-.58-.1-.81-.31-.5-.45-.54-1.22-.09-1.72l12.85-14.3c.45-.5 1.22-.54 1.72-.09s.54 1.22.09 1.72l-12.85 14.3c-.24.27-.57.4-.91.4z"/>
   <path class="cls-2" d="m132.63 193.77c-.33 0-.65-.13-.89-.39l-23.74-25.39-16.3 14.53c-.5.45-1.27.4-1.72-.1s-.4-1.27.1-1.72l17.19-15.32c.49-.44 1.25-.41 1.7.08l24.55 26.25c.46.49.43 1.26-.06 1.72-.23.22-.53.33-.83.33z"/>
   <path class="cls-2" d="m100.82 173.99c-.32 0-.64-.12-.87-.37l-32.52-33.65-17.14 19.02c-.45.5-1.22.54-1.72.09s-.54-1.22-.09-1.72l18.01-19.99c.23-.25.54-.4.88-.4.33 0 .66.13.9.37l33.43 34.59c.47.48.45 1.25-.03 1.72-.24.23-.54.34-.85.34z"/>
   <path class="cls-2" d="m193.36 173.99c-.3 0-.61-.11-.85-.34-.48-.47-.5-1.24-.03-1.72l33.43-34.59c.23-.24.56-.37.9-.37s.66.15.88.4l18.01 19.99c.45.5.41 1.27-.09 1.72s-1.27.41-1.72-.09l-17.14-19.02-32.52 33.65c-.24.25-.56.37-.87.37z"/>
  </g>
 </g>
</svg>
