<?xml version="1.0" standalone="no"?>
<svg viewBox="0 0 200 200" xmlns="http://www.w3.org/2000/svg">
  <path fill="#0F62FE" d="M52.2,-65.9C67.7,-60.6,80.2,-45.4,86.2,-27.8C92.1,-10.2,91.5,9.7,81.3,21.9C71.1,34.1,51.3,38.7,36.1,48C20.9,57.3,10.5,71.3,-0.8,72.5C-12.2,73.6,-24.3,61.9,-33.7,50.7C-43.1,39.6,-49.6,28.9,-54.5,17C-59.3,5.1,-62.4,-8.1,-59.9,-20.5C-57.3,-32.9,-49,-44.5,-38.1,-51.1C-27.1,-57.8,-13.6,-59.6,2.4,-62.9C18.4,-66.2,36.8,-71.1,52.2,-65.9Z" transform="translate(100 100)" />
</svg>
